# xmcd CD database file
#
# Track frame offsets:
#	150
#	12754
#	26476
#	39607
#	54790
#	66994
#	78548
#	92284
#	104755
#	119041
#	131624
#	144747
#	158925
#	171905
#	186160
#	200242
#	211825
#	223078
#	235666
#	248369
#	261711
#	272136
#	284192
#	298078
#	313162
#
# Disc length: 4365 seconds
#
# Revision: 0
# Processed by: cddbd v1.5.2PL0 Copyright (c) Steve Scherf et al.
# Submitted via: CDex 1.70beta2
#
DISCID=8c110b19
DTITLE=Various Artist - That Devilin' Tune (A Jazz History) Volume 1 [CD4)
DYEAR=2006
DGENRE=Jazz
TTITLE0=Bucktown 5 - Really A Pain
TTITLE1=Duke Ellington - Deacon Jazz
TTITLE2=Duke Ellington - Oh How I Love My Baby
TTITLE3=Moulin Rouge Orchestra - Chicago
TTITLE4=Bennie Moten - South
TTITLE5=Bennie Moten - Goofy Dust
TTITLE6=Rosa Henderson - Hard Hearted Hannah
TTITLE7=Jelly Roll Morton - Wolverine Blues
TTITLE8=Perly Breed - Where's My Sweetie Hiding
TTITLE9=Charlie Straight - Henpecked Blues
TTITLE10=Clarence Jones - Hula Lu
TTITLE11=Sioux City Six - I'm Glad
TTITLE12=The Cotton Pickers - Those Panama Mamas
TTITLE13=Blossom Seely - Lazy
TTITLE14=Johnny Dedroit - Number 2 Blues
TTITLE15=The Wolverines - Riverboat Shuffle
TTITLE16=Jimmy O'Bryant - Skoodlum Blues
TTITLE17=Lovie Austin - Too Sweet For Words
TTITLE18=Fred Longshaw - Chili Pepper
TTITLE19=Gulf Coast 7 - Keep Your Temper
TTITLE20=Boswell Sisters - Nights When I'm Lonely
TTITLE21=Stomp 6 - Why Can't It Be Poor Little Me
TTITLE22=Oscar Celestin's Original Tuxedo Jazz Orchestra - Careless Love
TTITLE23=Louis Forbstein's Royal Syncopaters - Down And Out Blues
TTITLE24=Perry's Hot Dogs - Ain't No Flies On Auntie
EXTD=YEAR: 2006
EXTT0=
EXTT1=
EXTT2=
EXTT3=
EXTT4=
EXTT5=
EXTT6=
EXTT7=
EXTT8=
EXTT9=
EXTT10=
EXTT11=
EXTT12=
EXTT13=
EXTT14=
EXTT15=
EXTT16=
EXTT17=
EXTT18=
EXTT19=
EXTT20=
EXTT21=
EXTT22=
EXTT23=
EXTT24=
PLAYORDER=
